<svg id="Capa_1" data-name="Capa 1" xmlns="http://www.w3.org/2000/svg" xmlns:xlink="http://www.w3.org/1999/xlink" viewBox="0 0 458 459"><defs><style>.cls-1,.cls-3{fill:#fff;}.cls-1,.cls-9{fill-rule:evenodd;}.cls-2{fill:#474747;}.cls-4{mask:url(#mask);}.cls-5{fill:#0065a9;}.cls-6{fill:#007acc;}.cls-7{fill:#1f9cf0;}.cls-8{opacity:0.25;}.cls-9{fill:url(#Degradado_sin_nombre_2);}</style><mask id="mask" x="42.51" y="41" width="356.11" height="354.06" maskUnits="userSpaceOnUse"><g id="mask0"><path class="cls-1" d="M295.1,393.55a22.19,22.19,0,0,0,17.66-.68L386,357.61a22.23,22.23,0,0,0,12.59-20V98.5a22.25,22.25,0,0,0-12.59-20L312.76,43.19a22.17,22.17,0,0,0-22.64,2,22.57,22.57,0,0,0-2.65,2.27l-140.27,128L86.1,129.09a14.81,14.81,0,0,0-18.92.84l-19.6,17.83a14.84,14.84,0,0,0,0,21.93l53,48.34-53,48.34a14.84,14.84,0,0,0,0,21.93l19.6,17.83A14.81,14.81,0,0,0,86.1,307l61.1-46.38,140.27,128A22.17,22.17,0,0,0,295.1,393.55Zm14.6-256.31L203.27,218,309.7,298.82Z"/></g></mask><linearGradient id="Degradado_sin_nombre_2" x1="220.46" y1="413" x2="220.46" y2="58.94" gradientTransform="matrix(1, 0, 0, -1, 0, 454)" gradientUnits="userSpaceOnUse"><stop offset="0" stop-color="#fff"/><stop offset="1" stop-color="#fff" stop-opacity="0"/></linearGradient></defs><rect class="cls-2" x="0.64" y="0.88" width="458" height="458" rx="64.12"/><rect class="cls-3" x="0.64" y="-0.12" width="440" height="440" rx="64.12"/><g class="cls-4"><path class="cls-5" d="M386,78.51,312.7,43.2a22.18,22.18,0,0,0-25.3,4.3l-240,218.87a14.83,14.83,0,0,0,0,21.93L67,306.13a14.84,14.84,0,0,0,18.94.84L375,87.67A14.73,14.73,0,0,1,398.62,99.4v-.85A22.22,22.22,0,0,0,386,78.51Z"/><path class="cls-6" d="M386,357.56l-73.33,35.3a22.16,22.16,0,0,1-25.3-4.3l-240-218.87a14.83,14.83,0,0,1,0-21.93L67,129.93a14.84,14.84,0,0,1,18.94-.84L375,348.4a14.73,14.73,0,0,0,23.63-11.74v.85A22.25,22.25,0,0,1,386,357.56Z"/><path class="cls-7" d="M312.7,392.87a22.16,22.16,0,0,1-25.29-4.31,13,13,0,0,0,22.24-9.21V56.71a13,13,0,0,0-22.24-9.21,22.18,22.18,0,0,1,25.29-4.31L386,78.45a22.26,22.26,0,0,1,12.6,20V337.57a22.24,22.24,0,0,1-12.6,20Z"/><g class="cls-8"><path class="cls-9" d="M294.88,393.55a22.19,22.19,0,0,0,17.66-.68l73.27-35.26a22.24,22.24,0,0,0,12.6-20V98.5a22.26,22.26,0,0,0-12.6-20L312.54,43.19a22.15,22.15,0,0,0-22.63,2,21.79,21.79,0,0,0-2.65,2.27L147,175.47l-61.1-46.38a14.81,14.81,0,0,0-18.92.84l-19.6,17.83a14.83,14.83,0,0,0,0,21.93l53,48.34-53,48.34a14.83,14.83,0,0,0,0,21.93L67,306.13a14.81,14.81,0,0,0,18.92.84L147,260.59l140.28,128A22,22,0,0,0,294.88,393.55Zm14.61-256.31L203.05,218l106.44,80.79Z"/></g></g></svg>