<?xml version="1.0" encoding="utf-8"?>
<!-- Generator: Adobe Illustrator 24.1.0, SVG Export Plug-In . SVG Version: 6.00 Build 0)  -->
<svg version="1.1" id="Capa_1" xmlns="http://www.w3.org/2000/svg" xmlns:xlink="http://www.w3.org/1999/xlink" x="0px" y="0px"
	 viewBox="0 0 458 459" style="enable-background:new 0 0 458 459;" xml:space="preserve">
<style type="text/css">
	.st0{clip-path:url(#SVGID_4_);}
	.st1{clip-path:url(#SVGID_8_);}
	.st2{fill:#00CE1D;}
	.st3{fill:#2E4960;}
	.st4{clip-path:url(#SVGID_12_);}
	.st5{fill:#FF5900;}
	.st6{clip-path:url(#SVGID_14_);}
	.st7{clip-path:url(#SVGID_18_);}
	.st8{fill:#00ABE4;}
	.st9{clip-path:url(#SVGID_20_);}
	.st10{clip-path:url(#SVGID_24_);}
	.st11{clip-path:url(#SVGID_28_);}
	.st12{fill:#6B70FC;}
	.st13{fill:#F08619;}
	.st14{fill:#F99132;}
	.st15{fill:#E23237;}
	.st16{fill:#B52E31;}
	.st17{fill:#FFFFFF;}
	.st18{fill-rule:evenodd;clip-rule:evenodd;fill:#FFFFFF;filter:url(#Adobe_OpacityMaskFilter);}
	.st19{mask:url(#mask0_2_);}
	.st20{fill:#0065A9;}
	.st21{fill:#007ACC;}
	.st22{fill:#1F9CF0;}
	.st23{opacity:0.25;}
	.st24{fill-rule:evenodd;clip-rule:evenodd;fill:url(#SVGID_37_);}
</style>
<g>
	<g>
		<defs>
			<path id="SVGID_38_" d="M393.88,459H64.12C28.71,459,0,430.29,0,394.88V65.12C0,29.71,28.71,1,64.12,1h329.77
				C429.29,1,458,29.71,458,65.12v329.77C458,430.29,429.29,459,393.88,459z"/>
		</defs>
		<use xlink:href="#SVGID_38_"  style="overflow:visible;fill:#228C52;"/>
		<clipPath id="SVGID_2_">
			<use xlink:href="#SVGID_38_"  style="overflow:visible;"/>
		</clipPath>
	</g>
	<g>
		<defs>
			<path id="SVGID_40_" d="M375.88,440H64.12C28.71,440,0,411.29,0,375.88V64.12C0,28.71,28.71,0,64.12,0h311.77
				C411.29,0,440,28.71,440,64.12v311.77C440,411.29,411.29,440,375.88,440z"/>
		</defs>
		<use xlink:href="#SVGID_40_"  style="overflow:visible;fill:#32DE84;"/>
		<clipPath id="SVGID_4_">
			<use xlink:href="#SVGID_40_"  style="overflow:visible;"/>
		</clipPath>
	</g>
</g>
<path id="path80319" class="st17" d="M314.25,160.9l31.99-55.42c1.81-3.11,0.71-7.05-2.35-8.86c-3.06-1.81-7.05-0.76-8.82,2.35
	l-32.41,56.13c-24.73-11.29-52.56-17.59-82.5-17.59c-29.93,0-57.77,6.3-82.5,17.59l-32.41-56.13c-1.81-3.11-5.75-4.16-8.86-2.35
	c-3.11,1.81-4.16,5.75-2.35,8.86l31.99,55.42c-55.17,29.89-92.53,85.73-98.7,151.1H413C406.83,246.63,369.46,190.79,314.25,160.9z
	 M131.62,257.84c-8.94,0-16.16-7.26-16.16-16.16c0-8.94,7.26-16.16,16.16-16.16c8.94,0,16.16,7.26,16.16,16.16
	C147.83,250.58,140.57,257.84,131.62,257.84z M308.67,257.84c-8.94,0-16.16-7.26-16.16-16.16c0-8.94,7.26-16.16,16.16-16.16
	c8.94,0,16.16,7.26,16.16,16.16C324.88,250.58,317.61,257.84,308.67,257.84z"/>
</svg>
