<?xml version="1.0" encoding="utf-8"?>
<!-- Generator: Adobe Illustrator 24.1.0, SVG Export Plug-In . SVG Version: 6.00 Build 0)  -->
<svg version="1.1" id="Capa_1" xmlns="http://www.w3.org/2000/svg" xmlns:xlink="http://www.w3.org/1999/xlink" x="0px" y="0px"
	 viewBox="0 0 458 459" style="enable-background:new 0 0 458 459;" xml:space="preserve">
<style type="text/css">
	.st0{clip-path:url(#SVGID_4_);}
	.st1{clip-path:url(#SVGID_8_);}
	.st2{fill:#00CE1D;}
	.st3{fill:#2E4960;}
	.st4{clip-path:url(#SVGID_12_);}
	.st5{fill:#FF5900;}
	.st6{clip-path:url(#SVGID_14_);}
	.st7{clip-path:url(#SVGID_18_);}
	.st8{fill:#00ABE4;}
	.st9{clip-path:url(#SVGID_20_);}
	.st10{clip-path:url(#SVGID_24_);}
	.st11{clip-path:url(#SVGID_28_);}
	.st12{fill:#6B70FC;}
	.st13{fill:#F08619;}
	.st14{fill:#F99132;}
	.st15{fill:#E23237;}
	.st16{fill:#B52E31;}
	.st17{fill:#FFFFFF;}
	.st18{fill-rule:evenodd;clip-rule:evenodd;fill:#FFFFFF;filter:url(#Adobe_OpacityMaskFilter);}
	.st19{mask:url(#mask0_2_);}
	.st20{fill:#0065A9;}
	.st21{fill:#007ACC;}
	.st22{fill:#1F9CF0;}
	.st23{opacity:0.25;}
	.st24{fill-rule:evenodd;clip-rule:evenodd;fill:url(#SVGID_37_);}
</style>
<g>
	<g>
		<defs>
			<path id="SVGID_38_" d="M393.88,459H64.12C28.71,459,0,430.29,0,394.88V65.12C0,29.71,28.71,1,64.12,1h329.77
				C429.29,1,458,29.71,458,65.12v329.77C458,430.29,429.29,459,393.88,459z"/>
		</defs>
		<use xlink:href="#SVGID_38_"  style="overflow:visible;fill:#228C52;"/>
		<clipPath id="SVGID_2_">
			<use xlink:href="#SVGID_38_"  style="overflow:visible;"/>
		</clipPath>
	</g>
	<g>
		<defs>
			<path id="SVGID_40_" d="M375.88,440H64.12C28.71,440,0,411.29,0,375.88V64.12C0,28.71,28.71,0,64.12,0h311.77
				C411.29,0,440,28.71,440,64.12v311.77C440,411.29,411.29,440,375.88,440z"/>
		</defs>
		<use xlink:href="#SVGID_40_"  style="overflow:visible;fill:#32DE84;"/>
		<clipPath id="SVGID_4_">
			<use xlink:href="#SVGID_40_"  style="overflow:visible;"/>
		</clipPath>
	</g>
</g>
<path id="path80319" class="st17" d="M303.39,128.15l28.55-49.46c1.61-2.77,0.64-6.29-2.1-7.91c-2.74-1.61-6.29-0.67-7.87,2.1
	l-28.93,50.09c-22.07-10.08-46.91-15.7-73.62-15.7c-26.71,0-51.56,5.62-73.62,15.7l-28.93-50.09c-1.61-2.77-5.13-3.71-7.91-2.1
	c-2.77,1.61-3.71,5.13-2.1,7.91l28.55,49.46C86.19,154.83,52.84,204.66,47.33,263h344.18C386.01,204.66,352.66,154.83,303.39,128.15
	z M140.41,214.67c-7.98,0-14.43-6.48-14.43-14.43c0-7.98,6.48-14.43,14.43-14.43c7.98,0,14.43,6.48,14.43,14.43
	C154.87,208.18,148.39,214.67,140.41,214.67z M298.41,214.67c-7.98,0-14.43-6.48-14.43-14.43c0-7.98,6.48-14.43,14.43-14.43
	c7.98,0,14.43,6.48,14.43,14.43C312.87,208.18,306.39,214.67,298.41,214.67z"/>
<g id="g80302" transform="matrix(1.3212521,0,0,1.3212521,480.52565,-75.040147)">
	<path id="path825" class="st17" d="M-314.52,293.96c-9.32,0-18.9,7.47-18.9,20.53c0,11.95,8.42,20.39,18.9,20.39
		c8.65,0,12.5-5.8,12.5-5.8v2.53c0,1.2,1.13,2.53,2.53,2.53h6.25v-39.28h-8.78v4.98C-302.02,299.84-305.9,293.96-314.52,293.96
		L-314.52,293.96z M-312.95,302c7.67,0,11.69,6.75,11.69,12.5c0,6.41-4.78,12.49-11.68,12.49c-5.77,0-11.55-4.67-11.55-12.58
		C-324.48,307.27-319.51,302-312.95,302z"/>
	<path id="path829" class="st17" d="M-281.04,334.14c-1.35,0-2.53-0.97-2.53-2.53v-36.75h8.78v4.86c1.99-2.99,5.88-5.77,11.84-5.77
		c9.75,0,14.94,7.77,14.94,15.04v25.15h-6.1c-1.6,0-2.68-1.34-2.68-2.68v-20.53c0-4.03-2.47-8.92-8.18-8.92
		c-6.16,0-9.83,5.82-9.83,11.3v20.83H-281.04z"/>
	<path id="path833" class="st17" d="M-222.41,293.96c-9.32,0-18.9,7.47-18.9,20.53c0,11.95,8.42,20.39,18.9,20.39
		c8.65,0,12.5-5.8,12.5-5.8v2.53c0,1.2,1.13,2.53,2.53,2.53h6.25v-58.93h-8.78v24.63C-209.91,299.84-213.8,293.96-222.41,293.96
		L-222.41,293.96z M-220.85,302c7.67,0,11.69,6.75,11.69,12.5c0,6.41-4.78,12.49-11.68,12.49c-5.77,0-11.55-4.67-11.55-12.58
		C-232.38,307.27-227.4,302-220.85,302z"/>
	<path id="path835" class="st17" d="M-188.93,334.14c-1.35,0-2.53-0.97-2.53-2.53v-36.75h8.78v6.55c1.51-3.67,4.77-6.99,10.56-6.99
		c1.61,0,3.12,0.3,3.12,0.3v9.08c0,0-1.89-0.74-4.17-0.74c-6.16,0-9.52,5.82-9.52,11.3v19.8L-188.93,334.14z"/>
	<path id="path837" class="st17" d="M-115.72,334.14c-1.35,0-2.53-0.97-2.53-2.53v-36.75h8.78v39.28L-115.72,334.14z"/>
	<path id="path839" class="st17" d="M-83.73,293.96c-9.32,0-18.9,7.47-18.9,20.53c0,11.95,8.42,20.39,18.9,20.39
		c8.65,0,12.5-5.8,12.5-5.8v2.53c0,1.2,1.13,2.53,2.53,2.53h6.25v-58.93h-8.78v24.63C-71.23,299.84-75.11,293.96-83.73,293.96
		L-83.73,293.96z M-82.16,302c7.67,0,11.69,6.75,11.69,12.5c0,6.41-4.78,12.49-11.68,12.49c-5.77,0-11.55-4.67-11.55-12.58
		C-93.69,307.27-88.72,302-82.16,302z"/>
	<circle id="path841" class="st17" cx="-113.93" cy="280.58" r="5.81"/>
	<path id="path843" class="st17" d="M-145.84,293.95c-9.76,0-20.48,7.28-20.48,20.48c0,12.02,9.13,20.46,20.46,20.46
		c13.96,0,20.77-11.22,20.77-20.38C-125.09,303.26-133.86,293.95-145.84,293.95L-145.84,293.95z M-145.81,302.15
		c6.75,0,11.78,5.44,11.78,12.3c0,6.98-5.34,12.37-11.76,12.37c-5.96,0-11.75-4.85-11.75-12.26
		C-157.53,307.04-152.03,302.15-145.81,302.15L-145.81,302.15z"/>
</g>
</svg>
